<svg xmlns="http://www.w3.org/2000/svg" viewBox="0 0 24.53 24.53"><defs><style>.cls-1{fill:#1da1f2;}</style></defs><g id="Layer_2" data-name="Layer 2"><g id="管理画面_ユーザー一覧未承認"><path class="cls-1" d="M12.26,0A12.27,12.27,0,1,0,24.53,12.26,12.26,12.26,0,0,0,12.26,0Zm.28,10.67h0a2.9,2.9,0,0,1-.07-.6A2.63,2.63,0,0,1,17,8.28a5.39,5.39,0,0,0,1.38-.49l.28-.14a2.74,2.74,0,0,1-.84,1.22,3.37,3.37,0,0,1-.31.21h0a5,5,0,0,0,1.23-.3l.27-.1A5.42,5.42,0,0,1,17.73,10c0,.11,0,.22,0,.34A7.46,7.46,0,0,1,6.25,16.67a6.26,6.26,0,0,0,.63,0,5.29,5.29,0,0,0,2.47-.62l.05,0L9.54,16c.2-.12.4-.25.59-.39h0a2.63,2.63,0,0,1-2.29-1.44,2.5,2.5,0,0,1-.15-.38,2.63,2.63,0,0,0,.49.05,2.73,2.73,0,0,0,.5-.06l.19,0h0a2.63,2.63,0,0,1-2.11-2.57v0a2.84,2.84,0,0,0,.92.3l.27,0H8A2.58,2.58,0,0,1,7.06,8.1a1.3,1.3,0,0,1,.08-.17,7.44,7.44,0,0,0,5.33,2.73h.07Z"/></g></g></svg>