<svg width="24" height="24" viewBox="0 0 24 24" fill="none" xmlns="http://www.w3.org/2000/svg">
<g clip-path="url(#clip0_845_22668)">
<path d="M8.30488 24C8.10366 24 7.90244 24 7.70122 24C7.53659 23.9451 7.37195 23.9085 7.20732 23.8537C5.30488 23.2317 3.42073 22.5915 1.53659 21.9695C0.47561 21.622 0 20.9451 0 19.8293C0 13.939 0 8.06707 0 2.17683C0 2.08537 0 1.9939 0 1.90244C0.0548781 0.859756 0.951219 0 1.95732 0C3.78659 0 5.61585 0 7.44512 0C9.32927 0 11.1951 0 13.0793 0C14.5793 0.0182927 15.9146 1.2622 15.9695 2.72561C16.0244 3.84146 15.9878 4.95732 15.9878 6.07317C15.9878 6.36585 15.8415 6.60366 15.622 6.78659C15.311 7.04268 14.9451 7.07927 14.5793 6.91463C14.2134 6.75 13.9939 6.43902 13.9939 6.03659C13.9939 5.06707 13.9939 4.11585 13.9939 3.14634C13.9939 2.41463 13.6098 2.0122 12.878 2.0122C11.4878 2.0122 10.0976 2.0122 8.70732 2.0122C8.63415 2.0122 8.57927 2.0122 8.5061 2.03049C8.52439 2.04878 8.52439 2.06707 8.54268 2.06707C9.64024 2.52439 10.0061 3.09146 10.0061 4.28049C10.0061 9.09146 10.0061 13.8841 10.0061 18.6951C10.0061 18.7866 10.0061 18.8963 10.0061 19.0061C10.1341 19.0061 10.2073 19.0061 10.2988 19.0061C11.1585 19.0061 12 19.0061 12.8598 19.0061C13.628 19.0061 14.0122 18.622 14.0122 17.8354C14.0122 16.6098 14.0122 15.3659 14.0122 14.1402C14.0122 14.0122 14.0122 13.8659 14.0488 13.7378C14.1768 13.2805 14.6341 12.9695 15.0915 13.0061C15.622 13.061 15.9878 13.4451 15.9878 13.9756C16.0061 15.311 16.0061 16.6463 15.9878 17.9817C15.9695 19.7012 14.6707 21 12.9512 21C12.0549 21 11.1585 21 10.2622 21C10.189 21 10.0976 21 9.9878 21C9.9878 21.3841 10.0061 21.7317 9.9878 22.0793C9.96951 22.7012 9.71342 23.2134 9.20122 23.5793C8.92683 23.7805 8.59756 23.872 8.30488 24Z" fill="#F74844"/>
<path d="M23.9998 10.2259C23.8169 10.482 23.6705 10.7564 23.451 10.9576C22.2254 12.2015 20.9998 13.4089 19.7742 14.6345C19.5181 14.9089 19.2071 15.0369 18.823 14.982C18.3291 14.8906 17.9998 14.4881 17.9998 13.9576C17.9998 13.0613 17.9998 12.1833 17.9998 11.2869C17.9998 11.1954 17.9998 11.1223 17.9998 10.9942C17.89 10.9942 17.7986 10.9942 17.7071 10.9942C16.4998 10.9942 15.2925 10.9942 14.0669 10.9942C13.4998 10.9942 13.0974 10.6833 13.0059 10.1894C12.8778 9.54911 13.3352 9.00033 14.012 9.00033C15.2376 9.00033 16.4632 9.00033 17.6888 9.00033C17.7803 9.00033 17.8535 9.00033 17.9815 9.00033C17.9815 8.90886 17.9815 8.8174 17.9815 8.74423C17.9815 7.86618 17.9815 6.96984 17.9815 6.09179C17.9815 5.61618 18.1644 5.26862 18.6034 5.08569C19.0425 4.90276 19.4266 5.03081 19.7559 5.36008C21.0547 6.65886 22.3534 7.95764 23.6522 9.25642C23.7986 9.40276 23.89 9.62228 23.9998 9.8052C23.9998 9.93325 23.9998 10.0796 23.9998 10.2259Z" fill="#F74844"/>
</g>
<defs>
<clipPath id="clip0_845_22668">
<rect width="24" height="24" fill="white"/>
</clipPath>
</defs>
</svg>
