<svg width="32" height="33" viewBox="0 0 32 33" fill="none" xmlns="http://www.w3.org/2000/svg">
<rect x="0.5" y="0.533203" width="31" height="31" rx="15.5" fill="white"/>
<path d="M15.8041 11.562C16.0644 11.8223 16.0644 12.2444 15.8041 12.5048L12.9422 15.3667H20.666C21.0342 15.3667 21.3327 15.6652 21.3327 16.0334C21.3327 16.4016 21.0342 16.7 20.666 16.7H12.9422L15.8041 19.562C16.0644 19.8223 16.0644 20.2444 15.8041 20.5048C15.5437 20.7651 15.1216 20.7651 14.8613 20.5048L10.8613 16.5048C10.7363 16.3797 10.666 16.2102 10.666 16.0334C10.666 15.8566 10.7363 15.687 10.8613 15.562L14.8613 11.562C15.1216 11.3016 15.5437 11.3016 15.8041 11.562Z" fill="#32302D"/>
<rect x="0.5" y="0.533203" width="31" height="31" rx="15.5" stroke="#D1CDCB"/>
</svg>
