<svg width="24" height="24" viewBox="0 0 24 24" fill="none" xmlns="http://www.w3.org/2000/svg">
<path d="M8.8172 16.5845C8.87613 16.6729 8.91739 16.7378 8.96454 16.8026C9.83091 18.0815 10.6973 19.3605 11.5695 20.6335C11.8289 21.0107 11.9703 21.4174 11.9173 21.8771C11.823 22.7022 11.322 23.268 10.5323 23.4566C9.82502 23.6216 9.05884 23.3033 8.60502 22.6315C7.60899 21.1757 6.61885 19.7141 5.62871 18.2583C5.58156 18.1876 5.52852 18.1169 5.49905 18.0756C5.12185 18.2053 4.77413 18.3762 4.40282 18.441C2.33414 18.8065 0.937335 16.9971 1.00217 15.4942C1.04342 14.5394 1.45598 13.7909 2.23395 13.2428C2.82331 12.8303 3.43036 12.4413 4.01973 12.0287C4.13761 11.9462 4.24959 11.8224 4.31442 11.6928C5.4519 9.41781 6.5717 7.14874 7.6915 4.87967C7.9685 4.31977 8.42821 4.03098 9.02937 3.96615C9.77787 3.88364 10.4556 4.13117 11.0981 4.4789C12.2827 5.12131 13.2434 6.02894 14.0803 7.06033C15.2885 8.53965 16.2315 10.1604 16.7265 12.0169C16.9387 12.8126 17.0507 13.6141 16.8857 14.4333C16.7855 14.9343 16.5674 15.3763 16.1548 15.7064C15.8955 15.9127 15.5949 16.0246 15.2649 16.0482C13.1785 16.2132 11.0981 16.3783 9.01169 16.5433C8.95275 16.5492 8.89971 16.5669 8.8172 16.5845ZM8.18657 6.44739C8.21604 6.70082 8.23372 6.94835 8.27498 7.19589C8.29855 7.36681 8.33981 7.54362 8.38696 7.71453C9.12956 10.3078 10.5735 12.4413 12.6481 14.1563C13.2316 14.6337 13.874 15.0168 14.6284 15.1818C15.0115 15.2643 15.3238 15.1406 15.5949 14.8872C15.8248 14.675 15.9427 14.398 16.0016 14.0974C16.1136 13.5316 16.0546 12.9717 15.9368 12.4118C15.6892 11.2802 15.1824 10.2547 14.5812 9.27636C13.7679 7.96207 12.8072 6.76565 11.5695 5.82266C11.0155 5.40421 10.4262 5.0388 9.74251 4.87967C8.92918 4.68518 8.35749 5.06827 8.23961 5.88749C8.20425 6.07019 8.20425 6.26469 8.18657 6.44739ZM12.8013 15.3763C10.0372 13.3607 8.23372 10.7262 7.39682 7.43164C7.37914 7.45521 7.36145 7.47879 7.34967 7.50236C6.60706 9.01115 5.86446 10.5199 5.13364 12.0346C5.09828 12.1053 5.12185 12.235 5.169 12.3057C5.9175 13.4196 6.67779 14.5335 7.43218 15.6474C7.51469 15.7712 7.6031 15.8007 7.73865 15.7889C9.05884 15.6828 10.379 15.5767 11.6992 15.4765C12.0646 15.4412 12.43 15.4058 12.8013 15.3763ZM6.71904 16.1425C5.95286 15.0168 5.19847 13.9147 4.44408 12.8008C3.83114 13.2192 3.23587 13.6082 2.65829 14.0267C1.85086 14.616 1.64458 15.7064 2.15733 16.5669C2.73491 17.5334 3.80167 17.9342 4.72108 17.445C5.41654 17.0678 6.04716 16.5786 6.71904 16.1425ZM6.20629 17.5275C6.21219 17.557 6.21219 17.5747 6.22397 17.5865C7.28484 19.1483 8.3457 20.7101 9.41246 22.2719C9.56569 22.4959 9.80144 22.6079 10.0726 22.6256C10.4497 22.6491 10.7503 22.49 10.9389 22.1659C11.1393 21.8181 11.0922 21.4763 10.8682 21.1521C9.88985 19.7141 8.9115 18.2701 7.93314 16.8321C7.80938 16.6553 7.61488 16.5963 7.42629 16.7142C7.01373 16.9735 6.60706 17.2564 6.20629 17.5275Z" fill="#838383" stroke="#838383" stroke-width="0.438887"/>
<path d="M17.7519 7.10747C17.4749 7.10747 17.3334 7.00728 17.2568 6.81868C17.1861 6.63008 17.2568 6.43559 17.4513 6.30593C17.8815 6.02303 18.3118 5.74013 18.742 5.45724C19.2901 5.09772 19.8323 4.73821 20.3804 4.38459C20.6515 4.20777 20.9109 4.23135 21.0582 4.45531C21.2173 4.67927 21.1407 4.93859 20.8637 5.1213C19.9148 5.74603 18.9601 6.37076 18.0053 6.9896C17.911 7.05443 17.799 7.08979 17.7519 7.10747Z" fill="#838383" stroke="#838383" stroke-width="0.438887"/>
<path d="M18.471 9.12936C19.0604 9.23545 19.6792 9.34743 20.3039 9.45941C20.8462 9.55371 21.3884 9.6539 21.9306 9.7482C22.2135 9.79535 22.3903 9.99573 22.3549 10.2374C22.3196 10.5026 22.0779 10.6617 21.7774 10.6087C20.7224 10.4201 19.6615 10.2315 18.6066 10.0429C18.5005 10.0252 18.3885 10.0075 18.2824 9.97805C18.0525 9.91322 17.917 9.71284 17.9524 9.50066C17.9936 9.25902 18.1881 9.11168 18.471 9.12936Z" fill="#838383" stroke="#838383" stroke-width="0.438887"/>
<path d="M15.0644 4.51486C15.1705 3.48936 15.2766 2.45797 15.3827 1.43247C15.4122 1.14367 15.6007 0.978651 15.8601 1.00223C16.1135 1.0258 16.2726 1.23208 16.2432 1.52087C16.1371 2.56405 16.0251 3.60724 15.919 4.65042C15.8836 4.98047 15.7127 5.15138 15.4357 5.12781C15.1705 5.10423 15.0291 4.89795 15.0585 4.56791C15.0644 4.54433 15.0644 4.53255 15.0644 4.51486Z" fill="#838383" stroke="#838383" stroke-width="0.438887"/>
<path d="M11.3517 8.19824C12.3772 8.20414 13.2671 8.82297 13.5972 9.77775C13.9272 10.7207 13.6267 11.7698 12.8369 12.3945C12.7603 12.4535 12.6837 12.5124 12.5953 12.5478C12.4067 12.6244 12.1827 12.5419 12.0766 12.371C11.9764 12.206 11.9941 11.982 12.1356 11.8405C12.1945 11.7816 12.2593 11.7403 12.3242 11.6873C12.9076 11.1981 13.0255 10.3435 12.5953 9.71881C12.1709 9.09998 11.3458 8.8878 10.6798 9.22964C10.6091 9.265 10.5384 9.31215 10.4676 9.34751C10.2496 9.4477 10.0079 9.37698 9.89595 9.1707C9.78397 8.97032 9.84291 8.73457 10.0433 8.59312C10.3851 8.35148 10.8861 8.19824 11.3517 8.19824Z" fill="#838383" stroke="#838383" stroke-width="0.438887"/>
</svg>
