<svg width="24" height="20" viewBox="0 0 24 20" fill="none" xmlns="http://www.w3.org/2000/svg">
<path d="M21.6 2.4H12L10.308 0.708C9.852 0.252 9.24 0 8.604 0H2.4C1.068 0 0.012 1.068 0.012 2.4L0 16.8C0 18.132 1.068 19.2 2.4 19.2H21.6C22.92 19.2 24 18.12 24 16.8V4.8C24 3.48 22.92 2.4 21.6 2.4ZM19.2 12H16.8V14.4C16.8 15.06 16.26 15.6 15.6 15.6C14.94 15.6 14.4 15.06 14.4 14.4V12H12C11.34 12 10.8 11.46 10.8 10.8C10.8 10.14 11.34 9.6 12 9.6H14.4V7.2C14.4 6.54 14.94 6 15.6 6C16.26 6 16.8 6.54 16.8 7.2V9.6H19.2C19.86 9.6 20.4 10.14 20.4 10.8C20.4 11.46 19.86 12 19.2 12Z" fill="black"/>
</svg>
