<svg width="24" height="24" viewBox="0 0 24 24" fill="none" xmlns="http://www.w3.org/2000/svg">
<path d="M14.0909 22H5C3.89543 22 3 21.1046 3 20V6C3 4.89543 3.89543 4 5 4H19C20.1046 4 21 4.89543 21 6V13.5909" stroke="#2262C6" stroke-width="1.5" stroke-linecap="round" stroke-linejoin="round"/>
<path d="M16 2V6" stroke="#2262C6" stroke-width="1.5" stroke-linecap="round" stroke-linejoin="round"/>
<path d="M8 2V6" stroke="#2262C6" stroke-width="1.5" stroke-linecap="round" stroke-linejoin="round"/>
<path d="M3 10H21" stroke="#2262C6" stroke-width="1.5" stroke-linecap="round" stroke-linejoin="round"/>
<path d="M18 22.8096C20.6234 22.8096 22.75 20.6829 22.75 18.0596C22.75 15.4362 20.6234 13.3096 18 13.3096C15.3766 13.3096 13.25 15.4362 13.25 18.0596C13.25 20.6829 15.3766 22.8096 18 22.8096Z" stroke="#2262C6" stroke-width="1.5" stroke-linecap="round" stroke-linejoin="round"/>
<path d="M17.7998 16.6592V19.0592L19.3998 19.8592" stroke="#2262C6" stroke-width="1.2" stroke-linecap="round" stroke-linejoin="round"/>
</svg>
