<svg width="24" height="24" viewBox="0 0 24 24" fill="none" xmlns="http://www.w3.org/2000/svg">
<path d="M1.71922 18.674C1.74598 18.6151 1.77275 18.5562 1.79416 18.4973C1.96546 18.053 2.36693 17.764 2.83799 17.7533C3.27158 17.7426 3.70517 17.7479 4.13876 17.7479C4.2137 17.7479 4.28329 17.7479 4.32076 17.7479C4.32076 15.2427 4.32076 12.7536 4.32076 10.2645C4.32076 9.69706 4.75435 9.2367 5.33247 9.23135C6.49941 9.21529 7.67171 9.226 8.83866 9.226C8.95107 9.226 9.05813 9.25811 9.19195 9.27953C9.19195 9.18853 9.19195 9.11358 9.19195 9.03329C9.19195 7.28287 9.19195 5.53245 9.19195 3.78739C9.19195 2.97374 9.59878 2.57227 10.4124 2.57227C11.467 2.57227 12.5215 2.57227 13.576 2.57227C14.3147 2.57227 14.7376 3.0005 14.7376 3.74456C14.7376 4.49933 14.7376 5.2541 14.7376 5.9714C15.9902 5.9714 17.2375 5.9714 18.4793 5.9714C19.1806 5.9714 19.6195 6.40499 19.6195 7.10622C19.6195 10.5 19.6195 13.8884 19.6195 17.2822C19.6195 17.4267 19.5928 17.5713 19.5767 17.7372C19.6302 17.7426 19.6945 17.7479 19.7587 17.7479C20.2083 17.7479 20.6526 17.7426 21.1023 17.7533C21.7232 17.764 22.2104 18.2564 22.2264 18.8774C22.2318 19.0594 22.2318 19.236 22.2264 19.418C22.2157 20.0764 21.7339 20.5689 21.0809 20.5903C21.0006 20.5957 20.9203 20.5903 20.84 20.5903C14.9464 20.5903 9.04742 20.5903 3.15381 20.5903C2.30805 20.5903 2.01899 20.403 1.71387 19.6322C1.71922 19.3163 1.71922 18.9951 1.71922 18.674ZM14.0631 10.5C14.0631 8.24105 14.0631 5.98745 14.0631 3.72851C14.0631 3.36986 13.94 3.24674 13.5814 3.24674C12.5054 3.24674 11.4295 3.24674 10.3589 3.24674C9.9949 3.24674 9.86643 3.37521 9.86643 3.74456C9.86643 8.2464 9.86643 12.7429 9.86643 17.2447C9.86643 17.6248 9.9949 17.7479 10.375 17.7479C11.4295 17.7479 12.484 17.7479 13.5386 17.7479C13.9561 17.7479 14.0685 17.6355 14.0685 17.2126C14.0631 14.9751 14.0631 12.7375 14.0631 10.5ZM14.743 12.2076C14.743 13.8938 14.743 15.5853 14.743 17.2715C14.743 17.6087 14.8822 17.7479 15.214 17.7479C16.2953 17.7479 17.3766 17.7479 18.4579 17.7479C18.8059 17.7479 18.945 17.6141 18.945 17.2608C18.945 13.8831 18.945 10.5054 18.945 7.12764C18.945 6.77434 18.8166 6.64587 18.4633 6.64587C17.3927 6.64587 16.3275 6.64587 15.2569 6.64587C14.8554 6.64587 14.743 6.75828 14.743 7.1544C14.743 8.84058 14.743 10.5214 14.743 12.2076ZM9.18125 13.8349C9.18125 12.6787 9.18125 11.5278 9.18125 10.3715C9.18125 10.0289 9.05278 9.90582 8.70483 9.90582C7.62889 9.90582 6.5583 9.90582 5.48235 9.90582C5.113 9.90582 4.98988 10.0236 4.98988 10.3929C4.98988 12.684 4.98988 14.9697 4.98988 17.2608C4.98988 17.6301 5.11835 17.7533 5.4877 17.7533C6.54759 17.7533 7.60748 17.7533 8.67272 17.7533C9.06884 17.7533 9.1866 17.6355 9.1866 17.2394C9.1866 16.1046 9.18125 14.9697 9.18125 13.8349ZM11.9808 18.4224C9.51849 18.4224 7.05077 18.4224 4.58841 18.4224C4.02099 18.4224 3.45358 18.417 2.88617 18.4224C2.57569 18.4224 2.38834 18.6097 2.37228 18.9202C2.36693 19.0326 2.37228 19.145 2.37228 19.2628C2.37228 19.7553 2.53822 19.9159 3.03605 19.9159C8.98319 19.9159 14.9357 19.9159 20.8828 19.9159C20.9364 19.9159 20.9899 19.9159 21.0434 19.9159C21.3325 19.9052 21.5145 19.7339 21.5412 19.4448C21.5519 19.327 21.5466 19.2039 21.5466 19.0861C21.5466 18.5776 21.3967 18.4277 20.8935 18.4277C17.9226 18.4224 14.9517 18.4224 11.9808 18.4224Z" fill="#838383" stroke="#838383" strokeWidth="0.5625"/>
</svg>
