<svg width="24" height="24" viewBox="0 0 24 24" fill="none" xmlns="http://www.w3.org/2000/svg">
<path fillRule="evenodd" clip-rule="evenodd" d="M7.19971 2.99995H4.79971C3.80559 2.99995 2.99971 3.80584 2.99971 4.79995V7.19995C2.99971 8.19406 3.80559 8.99995 4.79971 8.99995H7.19971C8.19382 8.99995 8.99971 8.19406 8.99971 7.19995V4.79995C8.99971 3.80584 8.19382 2.99995 7.19971 2.99995ZM4.79971 1.19995C2.81148 1.19995 1.19971 2.81173 1.19971 4.79995V7.19995C1.19971 9.18818 2.81148 10.8 4.79971 10.8H7.19971C9.18793 10.8 10.7997 9.18818 10.7997 7.19995V4.79995C10.7997 2.81173 9.18793 1.19995 7.19971 1.19995H4.79971Z" fill="#838383"/>
<path fillRule="evenodd" clip-rule="evenodd" d="M7.19971 15H4.79971C3.80559 15 2.99971 15.8058 2.99971 16.8V19.2C2.99971 20.1941 3.80559 21 4.79971 21H7.19971C8.19382 21 8.99971 20.1941 8.99971 19.2V16.8C8.99971 15.8058 8.19382 15 7.19971 15ZM4.79971 13.2C2.81148 13.2 1.19971 14.8117 1.19971 16.8V19.2C1.19971 21.1882 2.81148 22.8 4.79971 22.8H7.19971C9.18793 22.8 10.7997 21.1882 10.7997 19.2V16.8C10.7997 14.8117 9.18793 13.2 7.19971 13.2H4.79971Z" fill="#838383"/>
<path fillRule="evenodd" clip-rule="evenodd" d="M19.1997 2.99995H16.7997C15.8056 2.99995 14.9997 3.80584 14.9997 4.79995V7.19995C14.9997 8.19406 15.8056 8.99995 16.7997 8.99995H19.1997C20.1938 8.99995 20.9997 8.19406 20.9997 7.19995V4.79995C20.9997 3.80584 20.1938 2.99995 19.1997 2.99995ZM16.7997 1.19995C14.8115 1.19995 13.1997 2.81173 13.1997 4.79995V7.19995C13.1997 9.18818 14.8115 10.8 16.7997 10.8H19.1997C21.1879 10.8 22.7997 9.18818 22.7997 7.19995V4.79995C22.7997 2.81173 21.1879 1.19995 19.1997 1.19995H16.7997Z" fill="#838383"/>
<path fillRule="evenodd" clip-rule="evenodd" d="M19.1997 15H16.7997C15.8056 15 14.9997 15.8058 14.9997 16.8V19.2C14.9997 20.1941 15.8056 21 16.7997 21H19.1997C20.1938 21 20.9997 20.1941 20.9997 19.2V16.8C20.9997 15.8058 20.1938 15 19.1997 15ZM16.7997 13.2C14.8115 13.2 13.1997 14.8117 13.1997 16.8V19.2C13.1997 21.1882 14.8115 22.8 16.7997 22.8H19.1997C21.1879 22.8 22.7997 21.1882 22.7997 19.2V16.8C22.7997 14.8117 21.1879 13.2 19.1997 13.2H16.7997Z" fill="#838383"/>
</svg>
