<svg width="24" height="24" viewBox="0 0 24 24" fill="none" xmlns="http://www.w3.org/2000/svg">
<path d="M23 5.26134C23 9.9195 23 14.5777 23 19.2296C22.9875 19.2483 22.9751 19.267 22.9688 19.2857C22.6944 20.6389 21.7466 21.4184 20.3685 21.4184C14.7874 21.4184 9.20635 21.4184 3.63152 21.4184C3.40703 21.4184 3.17007 21.4059 2.95181 21.356C1.76701 21.0879 1 20.0964 1 18.843C1 13.6236 1 8.39796 1 3.17857C1 2.38039 1.38039 2 2.18481 2C7.90306 2 13.6151 2 19.3333 2C19.4019 2 19.4768 2 19.5454 2C20.1066 2.03741 20.5057 2.44274 20.5119 3.0102C20.5181 3.43424 20.5119 3.85828 20.5119 4.27608C20.5119 4.34467 20.5119 4.41327 20.5119 4.4881C21.017 4.4881 21.4909 4.4881 21.9649 4.4881C22.3515 4.4881 22.657 4.65023 22.8628 4.98073C22.9065 5.07426 22.9501 5.1678 23 5.26134ZM20.5057 5.4983C20.5057 5.57937 20.5057 5.63549 20.5057 5.69161C20.5057 9.81349 20.5057 13.9291 20.5057 18.051C20.5057 18.3503 20.5368 18.3815 20.8549 18.4564C21.1105 18.5187 21.2602 18.7183 21.2415 18.9739C21.2228 19.2171 21.0482 19.398 20.7988 19.4167C20.6803 19.4229 20.5556 19.4167 20.4371 19.3855C19.8384 19.2234 19.5079 18.7494 19.5079 18.0573C19.5079 13.1372 19.5079 8.21712 19.5079 3.29082C19.5079 3.19728 19.5079 3.10998 19.5079 3.0102C13.6525 3.0102 7.82823 3.0102 1.98526 3.0102C1.97903 3.09127 1.97279 3.15986 1.97279 3.22846C1.97279 8.4229 1.97279 13.6173 1.97279 18.8118C1.97279 19.7971 2.60261 20.4331 3.58163 20.4331C9.18141 20.4331 14.7874 20.4331 20.3872 20.4331C21.3662 20.4331 21.996 19.7971 21.996 18.8118C21.996 14.4467 21.996 10.0879 21.996 5.72279C21.996 5.64796 21.9898 5.57313 21.9836 5.4983C21.4909 5.4983 21.0108 5.4983 20.5057 5.4983Z" fill="#838383" stroke="#838383" stroke-width="0.0623583" stroke-miterlimit="10"/>
<path d="M6.99286 8.47889C7.77858 8.47889 8.57053 8.47889 9.35624 8.47889C9.82393 8.47889 10.0048 8.65973 10.0048 9.12742C10.0048 10.7051 10.0048 12.2765 10.0048 13.8542C10.0048 14.3156 9.81769 14.5027 9.35001 14.5027C7.77234 14.5027 6.20091 14.5027 4.62325 14.5027C4.16803 14.5027 3.98096 14.3219 3.98096 13.8666C3.98096 12.2765 3.98096 10.6864 3.98096 9.09624C3.98096 8.64726 4.1618 8.47266 4.61078 8.47266C5.40273 8.47889 6.19468 8.47889 6.99286 8.47889ZM4.98493 9.4891C4.98493 10.836 4.98493 12.158 4.98493 13.4925C6.32563 13.4925 7.65386 13.4925 8.98833 13.4925C8.98833 12.1518 8.98833 10.8236 8.98833 9.4891C7.64762 9.4891 6.32563 9.4891 4.98493 9.4891Z" fill="#838383" stroke="#838383" stroke-width="0.0623583" stroke-miterlimit="10"/>
<path d="M10.753 4.99316C12.7734 4.99316 14.7938 4.99316 16.8142 4.99316C16.914 4.99316 17.0137 4.99316 17.1135 5.00564C17.3442 5.04305 17.5064 5.23013 17.5188 5.46709C17.5313 5.69781 17.3817 5.89736 17.1509 5.95348C17.0574 5.97842 16.9514 5.98466 16.8516 5.98466C12.7859 5.98466 8.71386 5.98466 4.6481 5.98466C4.24277 5.98466 4.03075 5.835 3.99333 5.54815C3.96215 5.26754 4.13676 5.03681 4.41737 5.00564C4.51091 4.99316 4.60444 4.99316 4.69798 4.99316C6.71215 4.99316 8.73256 4.99316 10.753 4.99316Z" fill="#838383" stroke="#838383" stroke-width="0.0623583" stroke-miterlimit="10"/>
<path d="M14.5005 12.4017C13.696 12.4017 12.8979 12.4079 12.0934 12.4017C11.6819 12.4017 11.4511 12.1585 11.5135 11.8155C11.5509 11.6097 11.6756 11.485 11.869 11.4351C11.9625 11.4102 12.0685 11.4102 12.1683 11.4102C13.721 11.4102 15.2737 11.4102 16.8327 11.4102C16.8701 11.4102 16.9013 11.4102 16.9387 11.4102C17.3004 11.4226 17.5124 11.6159 17.5124 11.9153C17.5061 12.2146 17.2941 12.4079 16.9324 12.4079C16.1218 12.4079 15.3111 12.4017 14.5005 12.4017Z" fill="#838383" stroke="#838383" stroke-width="0.0623583" stroke-miterlimit="10"/>
<path d="M14.507 8.66602C15.3115 8.66602 16.1096 8.66602 16.9141 8.66602C17.2757 8.66602 17.4815 8.82815 17.5065 9.12123C17.5252 9.36443 17.3818 9.57645 17.1448 9.63257C17.0575 9.65128 16.964 9.66375 16.8704 9.66375C15.2928 9.66375 13.7213 9.66998 12.1437 9.65751C11.994 9.65751 11.8319 9.61386 11.7009 9.53903C11.5138 9.43302 11.4702 9.23348 11.5201 9.03393C11.57 8.84685 11.6947 8.72214 11.888 8.68472C11.9878 8.66602 12.0875 8.66602 12.1873 8.66602C12.9606 8.66602 13.7338 8.66602 14.507 8.66602Z" fill="#838383" stroke="#838383" stroke-width="0.0623583" stroke-miterlimit="10"/>
<path d="M14.5006 15.7564C13.6961 15.7564 12.8979 15.7626 12.0935 15.7564C11.6757 15.7564 11.445 15.5007 11.5198 15.1453C11.5697 14.9083 11.763 14.7649 12.0686 14.7586C12.2931 14.7524 12.5113 14.7586 12.7358 14.7586C14.1015 14.7586 15.4733 14.7586 16.839 14.7586C17.2817 14.7586 17.5249 14.9395 17.5187 15.27C17.5125 15.5942 17.2817 15.7626 16.8452 15.7626C16.0595 15.7564 15.28 15.7564 14.5006 15.7564Z" fill="#838383" stroke="#838383" stroke-width="0.0623583" stroke-miterlimit="10"/>
<path d="M6.98642 16.9411C6.182 16.9411 5.38381 16.9411 4.57939 16.9411C4.22395 16.9411 4.01817 16.7852 3.98699 16.5046C3.95581 16.2364 4.10547 16.0307 4.36737 15.9683C4.44844 15.9496 4.53574 15.9434 4.62304 15.9434C6.20071 15.9434 7.77214 15.9434 9.3498 15.9434C9.70524 15.9434 9.91102 16.0681 9.96715 16.3175C10.042 16.6168 9.86737 16.8912 9.55558 16.9224C9.31238 16.9473 9.06919 16.9411 8.82599 16.9411C8.22111 16.9411 7.60377 16.9411 6.98642 16.9411Z" fill="#838383" stroke="#838383" stroke-width="0.0623583" stroke-miterlimit="10"/>
</svg>
