<svg width="24" height="24" viewBox="0 0 24 24" fill="none" xmlns="http://www.w3.org/2000/svg">
<path d="M14.0909 22H5C3.89543 22 3 21.1046 3 20V6C3 4.89543 3.89543 4 5 4H19C20.1046 4 21 4.89543 21 6V13.5909" stroke="#838383" stroke-width="1.5" stroke-linecap="round" stroke-linejoin="round"/>
<path d="M16 2V6" stroke="#838383" stroke-width="1.5" stroke-linecap="round" stroke-linejoin="round"/>
<path d="M8 2V6" stroke="#838383" stroke-width="1.5" stroke-linecap="round" stroke-linejoin="round"/>
<path d="M3 10H21" stroke="#838383" stroke-width="1.5" stroke-linecap="round" stroke-linejoin="round"/>
<path d="M18 22.8099C20.6234 22.8099 22.75 20.6833 22.75 18.0599C22.75 15.4366 20.6234 13.3099 18 13.3099C15.3766 13.3099 13.25 15.4366 13.25 18.0599C13.25 20.6833 15.3766 22.8099 18 22.8099Z" stroke="#838383" stroke-width="1.5" stroke-linecap="round" stroke-linejoin="round"/>
<path d="M17.8 16.66V19.06L19.4 19.86" stroke="#838383" stroke-width="1.2" stroke-linecap="round" stroke-linejoin="round"/>
</svg>
