<svg width="24" height="24" viewBox="0 0 24 24" fill="none" xmlns="http://www.w3.org/2000/svg">
<path d="M12.1808 22.7079C11.8643 22.5666 11.514 22.4706 11.2315 22.2785C10.4856 21.7642 10.1804 20.8206 10.4234 19.9561C10.6664 19.1028 11.4292 18.4586 12.2825 18.3908C13.2318 18.3117 14.0737 18.7807 14.458 19.6114C14.5371 19.7809 14.6162 19.8317 14.797 19.8317C15.9441 19.8204 17.0968 19.8317 18.2439 19.8261C19.2158 19.8204 20.0181 19.261 20.3233 18.3852C20.3289 18.3682 20.3289 18.3456 20.3289 18.3569C20.0577 18.3569 19.7808 18.3795 19.5039 18.3513C18.4755 18.2609 17.6223 17.402 17.5884 16.3679C17.5545 15.2887 17.5545 14.2094 17.5884 13.1358C17.6223 12.0622 18.5659 11.1863 19.6396 11.1581C20.1425 11.1468 20.6397 11.1524 21.1426 11.1524C21.5947 11.1581 21.8942 11.4519 21.8998 11.9096C21.9055 12.6498 21.8998 13.3901 21.8998 14.1303C21.8998 15.2887 21.8998 16.4414 21.8998 17.5998C21.8942 19.4023 20.6962 20.8545 18.9332 21.1992C18.6846 21.25 18.4303 21.2613 18.1761 21.2613C17.0346 21.267 15.8932 21.267 14.7518 21.2613C14.6105 21.2613 14.5314 21.2896 14.4636 21.4309C14.1585 22.0976 13.6386 22.5045 12.9266 22.6627C12.8871 22.674 12.8475 22.6909 12.808 22.7022C12.6046 22.7079 12.3955 22.7079 12.1808 22.7079ZM20.4702 12.599C20.2216 12.599 20.0125 12.599 19.8034 12.599C19.3175 12.6046 19.0293 12.8928 19.0293 13.3788C19.0293 14.2942 19.0293 15.2095 19.0293 16.1249C19.0293 16.2097 19.0406 16.2945 19.0632 16.3736C19.1706 16.7013 19.5152 16.916 19.8373 16.8595C20.2046 16.7974 20.4645 16.5035 20.4645 16.1249C20.4702 15.04 20.4702 13.9551 20.4702 12.8702C20.4702 12.7854 20.4702 12.7063 20.4702 12.599ZM11.7965 20.5381C11.7909 20.9393 12.113 21.267 12.5141 21.2726C12.904 21.2783 13.2318 20.9562 13.2374 20.5663C13.2431 20.1595 12.9323 19.8317 12.5311 19.8317C12.1243 19.8204 11.8022 20.1312 11.7965 20.5381Z" fill="#838383"/>
<path d="M12.5142 1.04346C17.0516 1.04911 20.9392 4.29821 21.7416 8.78479C21.7699 8.9317 21.7868 9.09557 21.7586 9.24248C21.6907 9.58152 21.3743 9.79624 21.024 9.77929C20.6793 9.76234 20.4081 9.51936 20.3459 9.16338C20.0012 7.12916 19.0237 5.46788 17.4076 4.19084C12.8306 0.557505 5.93121 3.07202 4.75023 8.79044C4.72763 8.90345 4.71633 9.01081 4.68808 9.12382C4.59202 9.52501 4.21343 9.77929 3.82919 9.70018C3.43929 9.62107 3.19632 9.25379 3.26413 8.84129C3.45625 7.75638 3.80658 6.72797 4.37164 5.77866C5.91991 3.17374 8.1971 1.63677 11.1863 1.14517C11.3162 1.12257 11.4519 1.10561 11.5875 1.09996C11.8982 1.07736 12.209 1.06041 12.5142 1.04346Z" fill="#838383"/>
<path d="M3.13431 14.1077C3.13431 13.3957 3.13431 12.6837 3.13431 11.9717C3.13431 11.4462 3.41684 11.1524 3.94234 11.158C4.52435 11.1637 5.11767 11.1298 5.69403 11.2089C6.67158 11.3389 7.42311 12.1865 7.45137 13.1697C7.48527 14.2263 7.48527 15.283 7.45137 16.3396C7.41181 17.498 6.41166 18.4021 5.27588 18.3739C4.10056 18.3456 3.16821 17.4302 3.13996 16.2605C3.123 15.5486 3.13431 14.8309 3.13431 14.1077ZM4.56956 12.6046C4.56956 13.0001 4.56956 13.3618 4.56956 13.7291C4.56956 14.5315 4.56391 15.3338 4.56956 16.1362C4.56956 16.5374 4.88599 16.8538 5.27023 16.8652C5.64882 16.8765 5.99916 16.5713 6.00481 16.1927C6.01611 15.2208 6.01046 14.2489 6.00481 13.277C5.99916 12.9267 5.73358 12.6328 5.3889 12.6046C5.12897 12.5876 4.86339 12.6046 4.56956 12.6046Z" fill="#838383"/>
<path d="M12.537 3.22461C13.6784 3.25286 14.7577 3.50714 15.7804 4.01004C16.1195 4.17956 16.289 4.47339 16.2325 4.78983C16.1421 5.29273 15.6392 5.54701 15.1645 5.31533C14.5542 5.01585 13.9157 4.80113 13.2377 4.72202C12.1358 4.58641 11.0791 4.75027 10.0677 5.21362C9.949 5.27013 9.82469 5.33794 9.70038 5.36619C9.35569 5.4453 9.011 5.23622 8.89799 4.90284C8.77933 4.55815 8.91494 4.19086 9.24833 4.02134C9.90945 3.68231 10.6158 3.45628 11.3504 3.34327C11.7346 3.28677 12.1358 3.26416 12.537 3.22461Z" fill="#838383"/>
</svg>
