<svg width="24" height="24" viewBox="0 0 24 24" fill="none" xmlns="http://www.w3.org/2000/svg">
<path d="M16.645 7.63599C16.645 10.6973 14.1453 13.1971 11.0899 13.1911C8.03464 13.1911 5.53484 10.6792 5.54692 7.62391C5.55296 4.57464 8.03464 2.09296 11.0899 2.08693C14.1453 2.08089 16.645 4.57464 16.645 7.63599ZM11.0839 11.748C13.3422 11.754 15.1838 9.91841 15.2019 7.6541C15.214 5.40187 13.3724 3.54816 11.1141 3.53608C8.85583 3.53004 7.00815 5.36564 6.99608 7.62391C6.984 9.87614 8.83167 11.7419 11.0839 11.748Z" fill="#838383"/>
<path d="M20.2379 20.6058C20.5519 20.9197 20.8719 21.2398 21.192 21.5598C21.524 21.8979 21.5482 22.3508 21.2463 22.6467C20.9444 22.9425 20.5036 22.9184 20.1655 22.5802C19.8515 22.2663 19.5375 21.9462 19.2235 21.6262C18.2453 22.2542 17.1947 22.4414 16.0837 22.1455C15.1779 21.904 14.4534 21.3786 13.922 20.5997C12.8653 19.0419 13.1008 16.9708 14.4836 15.6665C15.8301 14.3985 17.9193 14.3019 19.3986 15.4371C20.9021 16.5904 21.4093 18.7883 20.2379 20.6058ZM17.08 20.8292C18.3842 20.8231 19.4348 19.7665 19.4348 18.4622C19.4348 17.1519 18.3661 16.0892 17.0558 16.0953C15.7637 16.1013 14.707 17.17 14.707 18.4743C14.7191 19.7665 15.7878 20.8352 17.08 20.8292Z" fill="#838383"/>
<path d="M2.08691 21.9527C2.17749 20.1051 2.92018 18.5955 4.18819 17.3396C5.64339 15.9025 7.41257 15.0994 9.41723 14.7854C9.94859 14.7009 10.4981 14.6768 11.0355 14.6526C11.4762 14.6345 11.8083 14.9485 11.8204 15.353C11.8325 15.7697 11.5064 16.0897 11.0536 16.0957C9.24817 16.1199 7.56956 16.5727 6.08417 17.6294C4.81616 18.5291 3.92251 19.7005 3.62664 21.2583C3.5723 21.5542 3.5723 21.8561 3.54211 22.158C3.50588 22.5264 3.24624 22.8162 2.9081 22.8524C2.55185 22.8886 2.21372 22.6833 2.12918 22.3452C2.08691 22.2003 2.09295 22.0554 2.08691 21.9527Z" fill="#838383"/>
</svg>
