<svg xmlns="http://www.w3.org/2000/svg" viewBox="0 0 41.31 41.45"><defs><style>.cls-1{fill:#fff;}.cls-2{fill:#d3d3d3;}</style></defs><g id="Layer_2" data-name="Layer 2"><g id="管理画面_ユーザー一覧"><circle class="cls-1" cx="20.65" cy="20.65" r="20.65"/><path class="cls-2" d="M27.92,15.94a7.34,7.34,0,0,1-7.32,7.32h0a7.34,7.34,0,0,1-7.32-7.32V14.66A7.34,7.34,0,0,1,20.6,7.34h0a7.34,7.34,0,0,1,7.32,7.32Z"/><path class="cls-2" d="M27.88,26.49a34.16,34.16,0,0,0-7.28-.73,34.25,34.25,0,0,0-7.29.73c-3.52.65-8.76,2.89-8.76,7.71a27.45,27.45,0,0,0,8.23,5.85c4.56,1.83,12.32,2.05,16.66-.46a41.26,41.26,0,0,0,7.21-5.39C36.65,29.38,31.4,27.14,27.88,26.49Z"/></g></g></svg>