<svg xmlns="http://www.w3.org/2000/svg" viewBox="0 0 24.31 24.31"><defs><style>.cls-1{fill:#1877f2;}.cls-2{fill:#fff;}</style></defs><g id="Layer_2" data-name="Layer 2"><g id="管理画面_ユーザー一覧未承認"><path class="cls-1" d="M24.31,12.15a12.16,12.16,0,1,0-14.06,12V15.67H7.17V12.15h3.08V9.48c0-3.05,1.82-4.73,4.59-4.73A19.49,19.49,0,0,1,17.57,5V8H16a1.75,1.75,0,0,0-2,1.89v2.28h3.37l-.54,3.52H14.05v8.49A12.16,12.16,0,0,0,24.31,12.15Z"/><path class="cls-2" d="M16.88,15.67l.54-3.52H14.05V9.87A1.75,1.75,0,0,1,16,8h1.54V5a19.49,19.49,0,0,0-2.73-.23c-2.77,0-4.59,1.68-4.59,4.73v2.67H7.17v3.52h3.08v8.49a12.11,12.11,0,0,0,3.8,0V15.67Z"/></g></g></svg>