<svg width="24" height="24" viewBox="0 0 24 24" fill="none" xmlns="http://www.w3.org/2000/svg">
<path d="M22.4587 5.47525C21.5614 4.59428 20.6478 3.68069 19.7342 2.75078C19.4976 2.50607 19.2366 2.40002 18.894 2.40002C15.884 2.40818 12.8333 2.40818 9.88857 2.40818H7.55564C7.3354 2.40818 7.11515 2.40818 6.89491 2.40818C6.27497 2.40818 5.63872 2.40818 5.01062 2.41634C4.83117 2.4245 4.57014 2.48975 4.41515 2.64474C3.46077 3.56649 2.49008 4.53718 1.43781 5.60576C1.31546 5.72812 1.22573 5.94836 1.21757 6.14413C1.1931 6.56015 1.20126 6.968 1.20126 7.37586V7.63688C1.20941 8.9828 2.07407 10.1737 3.33842 10.6142C4.60277 11.0547 6.01395 10.6387 6.85413 9.57827C6.87044 9.5538 6.88676 9.53749 6.90307 9.51302C7.53117 10.3206 8.45292 10.7774 9.45624 10.7774H9.4644C10.4514 10.7774 11.365 10.3287 11.9931 9.53749C12.6212 10.3287 13.5348 10.7774 14.5136 10.7774C14.5218 10.7774 14.53 10.7774 14.5381 10.7774C15.5251 10.7692 16.4632 10.2961 17.0831 9.51302C17.0994 9.53749 17.1158 9.5538 17.1321 9.57827C17.8091 10.3777 18.633 10.7855 19.5466 10.7855C19.8321 10.7855 20.1257 10.7447 20.4275 10.6632C21.7327 10.3124 22.5321 9.41513 22.736 8.06921C22.7931 7.70214 22.7849 7.32691 22.7849 6.968C22.7849 6.75592 22.7849 6.53567 22.7931 6.32359C22.8176 5.98915 22.7115 5.72812 22.4587 5.47525ZM16.3164 8.32208C15.9819 9.1541 15.1091 9.63537 14.2037 9.48854C13.3472 9.34987 12.6783 8.57495 12.6457 7.69398C12.6375 7.45743 12.6375 7.21271 12.6457 6.95984C12.6457 6.87827 12.6457 6.80486 12.6457 6.72329H16.455C16.455 6.83749 16.455 6.95169 16.4632 7.06589C16.4632 7.50637 16.4795 7.92238 16.3164 8.32208ZM9.33389 9.52117C8.33056 9.42329 7.58827 8.65652 7.55564 7.68583C7.54748 7.44927 7.54748 7.21271 7.55564 6.95984C7.55564 6.88643 7.55564 6.81302 7.55564 6.7396H11.3895C11.3813 6.8538 11.3813 6.968 11.3813 7.0822C11.3732 7.4248 11.365 7.75108 11.3079 8.06105C11.1284 8.95018 10.2393 9.6109 9.33389 9.52117ZM5.37769 9.23567C4.82301 9.58643 4.14597 9.62721 3.5505 9.34172C2.95503 9.05622 2.56349 8.50154 2.49008 7.85712C2.45745 7.58794 2.46561 7.31876 2.47376 7.0251C2.47376 6.92721 2.48192 6.82933 2.48192 6.73144H6.25866C6.38101 7.91422 6.25866 8.67283 5.37769 9.23567ZM20.6315 5.44262H3.3792C3.45262 5.36921 3.52603 5.30395 3.59944 5.23054C3.92573 4.92057 4.22754 4.63507 4.49672 4.30063C4.93721 3.76226 5.44295 3.64806 6.06289 3.65622C9.57044 3.68069 13.1433 3.68069 16.5937 3.67253H18.6411C18.8043 3.67253 18.9103 3.71332 19.0245 3.83567C19.3997 4.21906 19.7831 4.60244 20.1584 4.97767C20.3133 5.1245 20.4683 5.27948 20.6315 5.44262ZM21.2433 8.63205C20.8028 9.31725 19.9871 9.65984 19.2121 9.48039C18.3964 9.29277 17.8254 8.64836 17.7439 7.84897C17.7194 7.57978 17.7275 7.30244 17.7275 7.01694C17.7275 6.92721 17.7357 6.83749 17.7357 6.7396H21.5369C21.5369 6.82933 21.5369 6.91906 21.5451 7.00879C21.5532 7.57978 21.5614 8.12631 21.2433 8.63205Z" fill="#838383"/>
<path d="M21.7817 12.5229C21.7817 12.3843 21.7735 12.2782 21.7409 12.1885C21.6675 11.9275 21.4228 11.7399 21.1454 11.7399C20.8599 11.7399 20.6152 11.9275 20.5499 12.1967C20.5173 12.319 20.5173 12.4577 20.5173 12.58C20.5173 13.722 20.5173 14.8559 20.5173 15.9979C20.5173 17.0583 20.5173 18.1187 20.5173 19.1791C20.5173 20.1335 19.9463 20.7045 19.0001 20.7045C18.2986 20.7045 17.5971 20.7045 16.8956 20.7045H15.6883V19.2689C15.6883 18.3145 15.6883 17.3601 15.6883 16.4139C15.6883 15.3045 14.995 14.6112 13.8938 14.6112C12.6376 14.6112 11.3814 14.6112 10.1333 14.6112C8.9995 14.6112 8.33062 15.2882 8.32246 16.4302C8.32246 17.3927 8.32246 18.3471 8.32246 19.3097V20.7045H7.83303C6.78077 20.7045 5.74481 20.7045 4.71702 20.7045C4.67623 20.7045 4.63545 20.6964 4.57835 20.68C3.90131 20.5169 3.49345 19.9785 3.49345 19.2444C3.49345 17.8658 3.49345 16.4955 3.49345 15.1169C3.49345 14.2767 3.49345 13.4365 3.49345 12.5964V12.58C3.49345 12.474 3.49345 12.368 3.47714 12.2619C3.42004 11.952 3.15901 11.7399 2.84904 11.7399C2.55539 11.748 2.31068 11.9601 2.24542 12.2538C2.2291 12.3517 2.2291 12.4495 2.22095 12.5393V13.2489C2.22095 15.1903 2.22095 17.2051 2.22095 19.1791C2.22095 19.4402 2.24542 19.6604 2.2862 19.8643C2.5717 21.1368 3.63213 21.9607 4.9862 21.9689C5.89164 21.9689 6.81339 21.9689 7.71068 21.9689H8.75478C9.36657 21.9689 9.58681 21.7486 9.58681 21.1368V19.0323C9.58681 18.1595 9.58681 17.2949 9.58681 16.422C9.58681 15.9734 9.68469 15.8755 10.1252 15.8755C11.3732 15.8755 12.6212 15.8755 13.8611 15.8755C14.3179 15.8755 14.4077 15.9734 14.4158 16.4384V18.2248C14.4158 19.2199 14.4158 20.2069 14.4158 21.2021C14.4158 21.7323 14.6524 21.9689 15.1907 21.977H15.7373C16.2838 21.977 16.8466 21.977 17.4095 21.977C17.9397 21.977 18.478 21.977 19.0001 21.977C20.6315 21.9689 21.7735 20.8269 21.7817 19.1955C21.7817 17.2704 21.7817 15.3127 21.7817 13.4202V12.5229Z" fill="#838383"/>
</svg>
