<svg width="24" height="24" viewBox="0 0 24 24" fill="none" xmlns="http://www.w3.org/2000/svg">
<g clip-path="url(#clip0_639_15590)">
<path d="M20.777 22.8C17.486 22.8 14.195 22.8 10.904 22.8C10.8589 22.7831 10.8139 22.7662 10.7688 22.7606C9.85022 22.5915 9.07819 21.8308 8.92603 20.9291C8.88659 20.6981 8.94294 20.4276 8.84151 20.2304C8.74007 20.0331 8.48648 19.9204 8.31742 19.757C6.31127 17.7565 4.31638 15.7503 2.30459 13.7554C1.78051 13.237 1.31278 12.7073 1.20007 11.9578C1.20007 11.7605 1.20007 11.5633 1.20007 11.3661C1.32968 10.6109 1.81432 10.0869 2.33276 9.57405C4.69958 7.22414 7.05512 4.8686 9.3994 2.50179C9.67552 2.22566 9.97419 2.09041 10.3518 2.03969C12.279 1.77483 14.2063 1.49871 16.1335 1.21694C16.4322 1.17186 16.6633 1.24512 16.8774 1.45926C17.2888 1.88191 17.7058 2.29892 18.1341 2.72156C18.1961 2.66521 18.2468 2.61449 18.2975 2.56941C18.6807 2.18621 19.0639 1.80301 19.4471 1.41981C19.6218 1.24512 19.8303 1.15495 20.0782 1.21694C20.5741 1.33528 20.7319 1.91572 20.3656 2.29328C19.9374 2.73847 19.4922 3.16675 19.047 3.6063C19.0977 3.66265 19.1315 3.7021 19.171 3.74155C19.5654 4.13601 19.9543 4.53048 20.3487 4.91932C20.5291 5.09965 20.608 5.31379 20.5572 5.57301C20.5347 5.67444 20.5347 5.78151 20.5065 5.88295C20.4727 6.02947 20.5122 6.14781 20.6023 6.27178C21.2673 7.15089 21.9266 8.03562 22.5916 8.91473C22.7437 9.1176 22.8113 9.32047 22.8113 9.57405C22.8057 11.8958 22.8057 14.2119 22.8057 16.5336C22.8057 17.8466 22.8113 19.1653 22.8057 20.4783C22.8001 21.5039 22.1464 22.383 21.1828 22.6817C21.0475 22.7324 20.9123 22.7606 20.777 22.8ZM17.2212 3.59503C16.8887 3.26255 16.5449 2.91316 16.1899 2.57504C16.1505 2.5356 16.0603 2.51869 16.0039 2.52433C14.1668 2.78355 12.3297 3.04841 10.4983 3.31326C10.4307 3.32454 10.3518 3.36398 10.301 3.4147C7.79334 5.91113 5.29128 8.41319 2.79486 10.9152C2.34403 11.3661 2.34967 11.9916 2.79486 12.4424C4.97007 14.6233 7.14529 16.7985 9.32614 18.9737C9.76569 19.4132 10.3968 19.4132 10.8364 18.9737C13.3385 16.4773 15.8405 13.9752 18.3369 11.4731C18.3933 11.4168 18.444 11.321 18.4553 11.2421C18.7201 9.4219 18.9794 7.60171 19.2386 5.77588C19.2499 5.71389 19.2386 5.62373 19.2048 5.58428C18.861 5.22362 18.506 4.87424 18.1848 4.55303C17.8748 4.85733 17.5875 5.15036 17.2831 5.45467C17.4071 5.57301 17.548 5.70826 17.6832 5.84914C17.9368 6.11963 17.9425 6.5141 17.6889 6.75642C17.4409 6.99873 17.0577 7.00437 16.7985 6.74515C16.2012 6.15908 15.6095 5.56737 15.0234 4.97004C14.7585 4.69954 14.7642 4.31071 15.0178 4.06276C15.2714 3.8148 15.6545 3.82044 15.925 4.0853C16.0659 4.22054 16.2012 4.36143 16.3251 4.49104C16.6295 4.18673 16.9169 3.8937 17.2212 3.59503ZM10.1545 20.5572C10.2391 21.1714 10.6504 21.5321 11.2365 21.5321C14.3077 21.5321 17.3789 21.5321 20.4502 21.5321C21.087 21.5321 21.5321 21.0756 21.5321 20.4332C21.5321 16.883 21.5321 13.3328 21.5321 9.78256C21.5321 9.6924 21.4983 9.59096 21.442 9.5177C21.0813 9.0218 20.7094 8.53716 20.3431 8.04689C20.3093 8.00181 20.2755 7.968 20.2248 7.91165C20.2079 7.95673 20.1966 7.97927 20.1909 8.00181C20.0219 9.19649 19.8472 10.3912 19.6838 11.5915C19.65 11.8507 19.5485 12.0536 19.3682 12.2339C16.9281 14.6683 14.488 17.0971 12.0649 19.5429C11.5295 20.0895 10.966 20.5347 10.1545 20.5572Z" fill="#838383"/>
<path d="M9.18515 16.1841C8.7456 16.1785 8.4582 15.7671 8.59908 15.3219C8.80195 14.7021 9.01046 14.0822 9.21896 13.4679C9.991 11.1462 10.7687 8.82447 11.5407 6.50274C11.6703 6.11391 11.9633 5.91667 12.2958 5.9843C12.6959 6.06883 12.8932 6.44639 12.7579 6.8634C12.4423 7.8214 12.1211 8.77939 11.7999 9.73739C11.1406 11.7154 10.4813 13.6877 9.82194 15.6657C9.69796 16.0207 9.48946 16.1841 9.18515 16.1841Z" fill="#838383"/>
<path d="M14.2571 12.972C13.2146 12.972 12.3693 12.1324 12.3637 11.0842C12.358 10.036 13.2202 9.17384 14.2628 9.17947C15.2997 9.17947 16.1506 10.0304 16.1562 11.0729C16.1618 12.1211 15.3109 12.9776 14.2571 12.972ZM14.2571 11.7097C14.6065 11.7097 14.8883 11.4336 14.8939 11.0842C14.8939 10.7404 14.6065 10.4474 14.2684 10.4474C13.9246 10.4418 13.6372 10.7348 13.6372 11.0786C13.6316 11.4223 13.9077 11.7041 14.2571 11.7097Z" fill="#838383"/>
<path d="M7.09463 12.972C6.04084 12.972 5.20118 12.1154 5.20682 11.0617C5.21245 10.0248 6.06901 9.17384 7.1059 9.17947C8.14279 9.18511 8.99935 10.0417 8.99935 11.0729C9.00499 12.1211 8.14843 12.9776 7.09463 12.972ZM7.089 11.7097C7.43838 11.7153 7.72578 11.4392 7.73705 11.0955C7.74832 10.7573 7.45529 10.4587 7.11717 10.4474C6.77906 10.4361 6.48039 10.7235 6.47475 11.0673C6.46348 11.4167 6.73961 11.7041 7.089 11.7097Z" fill="#838383"/>
</g>
<defs>
<clipPath id="clip0_639_15590">
<rect width="21.6056" height="21.6" fill="white" transform="translate(1.19995 1.19995)"/>
</clipPath>
</defs>
</svg>
