<svg width="24" height="24" viewBox="0 0 24 24" fill="none" xmlns="http://www.w3.org/2000/svg">
<path fillRule="evenodd" clip-rule="evenodd" d="M16.32 18.48H21.2726C22.1161 18.48 22.7999 17.7961 22.7999 16.9526C22.7999 16.5475 22.639 16.159 22.3526 15.8726L21.2726 14.7926C20.8675 14.3875 20.6399 13.8381 20.6399 13.2653L20.6399 9.80828C20.6399 5.05403 16.7859 1.19995 12.0316 1.19995C7.26727 1.19995 3.40902 5.0698 3.42332 9.83412L3.43354 13.2394C3.43531 13.8275 3.19718 14.3909 2.77415 14.7995L1.66288 15.8728C1.36703 16.1586 1.19995 16.5522 1.19995 16.9635C1.19995 17.801 1.87887 18.48 2.71636 18.48H7.67995C7.67995 20.8658 9.61408 22.8 12 22.8C14.3858 22.8 16.32 20.8658 16.32 18.48ZM20.1271 15.9381L21.0489 16.86H2.97273L3.8996 15.9647C4.6399 15.2497 5.05662 14.2637 5.05353 13.2345L5.04331 9.82926C5.0317 5.96153 8.16387 2.81995 12.0316 2.81995C15.8912 2.81995 19.0199 5.94873 19.0199 9.80828L19.0199 13.2653C19.0199 14.2678 19.4182 15.2292 20.1271 15.9381ZM14.7 18.48H9.29995C9.29995 19.9711 10.5088 21.18 12 21.18C13.4911 21.18 14.7 19.9711 14.7 18.48Z" fill="#838383"/>
</svg>
