<svg width="24" height="24" viewBox="0 0 24 24" fill="none" xmlns="http://www.w3.org/2000/svg">
<g clip-path="url(#clip0_639_17014)">
<path d="M5.83503 23.5345C5.57329 23.48 5.31156 23.4418 5.05528 23.3655C3.47397 22.9074 2.48156 21.6915 2.41067 20.0283C2.33978 18.2998 2.52518 16.5985 3.17951 14.9845C3.60483 13.943 4.21555 13.0379 5.24612 12.4871C5.87865 12.1491 6.56025 11.9855 7.27456 12.0018C7.49813 12.0073 7.73805 12.1218 7.9398 12.2309C8.27243 12.4108 8.57778 12.6344 8.8995 12.8307C10.7644 13.9867 12.6292 13.9812 14.4941 12.8252C14.7503 12.6671 15.0175 12.5089 15.2575 12.329C15.7046 11.9964 16.1953 11.9528 16.7243 12.0291C18.1692 12.2418 19.1944 13.0379 19.8814 14.3029C20.4976 15.4316 20.7757 16.6585 20.8956 17.9236C20.9611 18.5725 20.9883 19.2268 20.9829 19.8811C20.9611 21.8278 19.6251 23.2782 17.6894 23.4909C17.6403 23.4963 17.5967 23.5181 17.5476 23.529C13.6434 23.5345 9.73923 23.5345 5.83503 23.5345ZM11.6968 22.2258C13.5398 22.2204 15.3829 22.2367 17.2259 22.2149C18.7581 22.1986 19.696 21.2171 19.6851 19.6848C19.6797 19.1068 19.6579 18.5234 19.5924 17.9454C19.4779 16.9094 19.2653 15.8951 18.7636 14.9627C18.3056 14.1175 17.6621 13.5123 16.6806 13.3378C16.3753 13.2832 16.1026 13.2941 15.8464 13.5014C15.6555 13.654 15.4374 13.774 15.2302 13.9049C13.169 15.1972 11.037 15.3662 8.83952 14.2811C8.32695 14.0303 7.86347 13.6868 7.37271 13.3923C7.30183 13.3487 7.21458 13.2941 7.13824 13.2996C6.43483 13.3323 5.80231 13.5504 5.2952 14.063C4.87533 14.4883 4.58088 14.9954 4.36822 15.5462C3.82294 16.9584 3.68662 18.4416 3.72479 19.9357C3.74661 20.7536 4.09558 21.4243 4.82081 21.8496C5.3061 22.1331 5.84048 22.2149 6.39121 22.2149C8.15246 22.2258 9.92462 22.2258 11.6968 22.2258Z" fill="#838383"/>
<path d="M12.062 1.19995C12.351 1.25993 12.6455 1.30901 12.929 1.37444C14.9029 1.83793 16.5933 3.7246 16.855 5.74758C17.0295 7.07806 16.8387 8.33221 16.0862 9.45548C15.0883 10.9495 13.7142 11.8165 11.893 11.942C9.4992 12.1055 7.53074 10.6933 6.64193 8.77934C5.8022 6.97991 6.14027 4.58614 7.45985 3.09752C8.26686 2.18691 9.24291 1.55438 10.4425 1.30901C10.6497 1.26538 10.8515 1.23267 11.0587 1.19995C11.3968 1.19995 11.7294 1.19995 12.062 1.19995ZM15.6227 6.60912C15.6663 4.40074 13.8669 2.5577 11.6312 2.51407C9.37378 2.47045 7.558 4.24261 7.49257 6.51097C7.43259 8.72481 9.27563 10.6442 11.5331 10.6606C13.7306 10.6715 15.6336 8.85022 15.6227 6.60912Z" fill="#838383"/>
</g>
<defs>
<clipPath id="clip0_639_17014">
<rect width="18.5886" height="22.3346" fill="white" transform="translate(2.3999 1.19995)"/>
</clipPath>
</defs>
</svg>
