<svg xmlns="http://www.w3.org/2000/svg" viewBox="0 0 18 12.88"><defs><style>.cls-1{fill:#d3231a;}</style></defs><g id="Layer_2" data-name="Layer 2"><g id="管理画面_ユーザー一覧"><path class="cls-1" d="M16,0H2A2,2,0,0,0,0,2v8.86a2,2,0,0,0,2,2H16a2,2,0,0,0,2-2V2A2,2,0,0,0,16,0Zm.69,11.56H1.32v-8H16.68Z"/><rect class="cls-1" x="9.68" y="8.02" width="6.04" height="0.88"/><rect class="cls-1" x="9.68" y="4.55" width="6.04" height="0.88"/><rect class="cls-1" x="9.68" y="6.29" width="6.04" height="0.88"/><rect class="cls-1" x="2.28" y="9.76" width="6.04" height="0.88"/><rect class="cls-1" x="2.28" y="8.02" width="6.04" height="0.88"/><rect class="cls-1" x="9.68" y="9.76" width="6.04" height="0.88"/><rect class="cls-1" x="2.28" y="4.55" width="6.04" height="0.88"/><rect class="cls-1" x="2.28" y="6.29" width="6.04" height="0.88"/></g></g></svg>