<svg xmlns="http://www.w3.org/2000/svg" viewBox="0 0 29.55 29.55"><defs><style>.cls-1{fill:#d3231a;}</style></defs><g id="Layer_2" data-name="Layer 2"><g id="パスワード再設定"><g id="タイトル"><path id="kihon_icon" class="cls-1" d="M28.38,12.32l-2-.15a1.29,1.29,0,0,1-1.12-.88,12.28,12.28,0,0,0-.6-1.45,1.27,1.27,0,0,1,.17-1.42l1.31-1.53a1.28,1.28,0,0,0-.08-1.74L24.4,3.5a1.3,1.3,0,0,0-.91-.38,1.32,1.32,0,0,0-.83.3L21.13,4.73a1.23,1.23,0,0,1-.84.31,1.28,1.28,0,0,1-.57-.13,9.74,9.74,0,0,0-1.46-.6,1.31,1.31,0,0,1-.88-1.13l-.15-2A1.28,1.28,0,0,0,15.94,0H13.61a1.29,1.29,0,0,0-1.29,1.17l-.15,2a1.31,1.31,0,0,1-.88,1.13,9.63,9.63,0,0,0-1.45.6A1.33,1.33,0,0,1,9.26,5a1.27,1.27,0,0,1-.84-.31L6.89,3.42a1.29,1.29,0,0,0-.82-.3,1.32,1.32,0,0,0-.92.38L3.5,5.15a1.29,1.29,0,0,0-.08,1.74L4.73,8.42a1.29,1.29,0,0,1,.18,1.42,9.63,9.63,0,0,0-.6,1.45,1.31,1.31,0,0,1-1.13.88l-2,.15A1.29,1.29,0,0,0,0,13.61v2.33a1.28,1.28,0,0,0,1.17,1.29l2,.15a1.31,1.31,0,0,1,1.13.88,9.74,9.74,0,0,0,.6,1.46,1.28,1.28,0,0,1-.18,1.41L3.42,22.66A1.29,1.29,0,0,0,3.5,24.4l1.65,1.65a1.32,1.32,0,0,0,.92.38,1.29,1.29,0,0,0,.82-.3l1.53-1.31a1.27,1.27,0,0,1,.84-.31,1.21,1.21,0,0,1,.58.14,12.28,12.28,0,0,0,1.45.6,1.29,1.29,0,0,1,.88,1.12l.15,2a1.29,1.29,0,0,0,1.29,1.17h2.33a1.28,1.28,0,0,0,1.29-1.17l.15-2a1.29,1.29,0,0,1,.88-1.12,12.43,12.43,0,0,0,1.46-.6,1.17,1.17,0,0,1,.57-.14,1.28,1.28,0,0,1,.84.31l1.53,1.31a1.32,1.32,0,0,0,.83.3,1.3,1.3,0,0,0,.91-.38l1.65-1.65a1.28,1.28,0,0,0,.08-1.74l-1.31-1.53a1.26,1.26,0,0,1-.17-1.41,12.43,12.43,0,0,0,.6-1.46,1.29,1.29,0,0,1,1.12-.88l2-.15a1.28,1.28,0,0,0,1.17-1.29V13.61A1.29,1.29,0,0,0,28.38,12.32Zm-13.6,9a6.59,6.59,0,1,1,6.58-6.58A6.58,6.58,0,0,1,14.78,21.36Z"/></g></g></g></svg>