<svg xmlns="http://www.w3.org/2000/svg" viewBox="0 0 18 15.21"><defs><style>.cls-1{fill:#d3231a;}</style></defs><g id="Layer_2" data-name="Layer 2"><g id="管理画面_ユーザー一覧"><path class="cls-1" d="M8.56,9.48a.54.54,0,0,0,.88,0l3.15-4.15a.43.43,0,0,0,.09-.43.42.42,0,0,0-.39-.18H11.08a.58.58,0,0,1-.59-.59V.7A.71.71,0,0,0,9.78,0H8.22a.71.71,0,0,0-.71.7V4.13a.58.58,0,0,1-.59.59H5.71a.42.42,0,0,0-.39.18.43.43,0,0,0,.09.43Z"/><path class="cls-1" d="M15.65,8.94v3.92H2.35V8.94H0v5.37a.9.9,0,0,0,.89.9H17.11a.9.9,0,0,0,.89-.9V8.94Z"/></g></g></svg>