<svg xmlns="http://www.w3.org/2000/svg" viewBox="0 0 169.46 36"><defs><style>.cls-1{fill:#d3231a;}</style></defs><g id="Layer_2" data-name="Layer 2"><g id="ログイン画面"><g id="logo"><rect class="cls-1" x="124.36" width="10.74" height="36"/><path class="cls-1" d="M34.44,36H52.38V27.89a12.71,12.71,0,0,1-1.4.58,16.19,16.19,0,0,1-3.51.86c-.72.07-1.16.1-1.32.1h-.48V23.93h.6l.85-.06a11.13,11.13,0,0,0,2.57-.54,9.87,9.87,0,0,0,2.69-1.41V12.54H45.67V7.22h6.71V0H34.44Z"/><path class="cls-1" d="M105.5,19.21c.32-.39.63-.8.92-1.22a19.66,19.66,0,0,0,2.24-4.68h5a26.13,26.13,0,0,1-3.31,7.63,20.73,20.73,0,0,1-4.63,5,18.67,18.67,0,0,1-4.49,2.7,10,10,0,0,1-3.92.66H95.14V36h6.7c10.5,0,14.4-3.79,14.4-14V0H105.5Zm6.42-14h3v5h-3Zm-4.41,0h3v5h-3Z"/><path class="cls-1" d="M147.59,28.47a16.06,16.06,0,0,1-3.51.86l-.58.05V36h10.75V24.06A16.53,16.53,0,0,1,152.13,26a17.2,17.2,0,0,1-4.54,2.5"/><path class="cls-1" d="M162.15,0V15.75l-1.82-3.33,0,.1a26.64,26.64,0,0,1-3.55,8.42c-.36.53-.75,1.06-1.2,1.62L163,36h6.45V0Z"/><path class="cls-1" d="M153.54,0h-10V7.22h7.68v5.32H143.5V23.89l.23,0a11.47,11.47,0,0,0,2.57-.54,10.41,10.41,0,0,0,3.28-1.85A16.26,16.26,0,0,0,152.8,18a21.59,21.59,0,0,0,2.6-5.79l.1-.32H160Z"/><rect class="cls-1" x="95.14" y="7.89" width="5.78" height="4.32"/><rect class="cls-1" x="95.14" y="15.85" width="5.78" height="4.32"/><path class="cls-1" d="M21.53,14.27a24.54,24.54,0,0,1-3,6.67,23.4,23.4,0,0,1-2.86,3.48L17.9,36H28.58L24.34,14.27Z"/><polygon class="cls-1" points="13.54 5.78 17.77 5.78 15.32 8.92 21.98 8.92 28.94 0 18.04 0 13.54 5.78"/><path class="cls-1" d="M11.15,14.27,8.67,17.45H3l7.71-9.88V0H0V36H10.75V27.88a14.28,14.28,0,0,1-1.41.59c-.68.23-1.28.41-1.84.55l-.5.13V23.6l.56-.14.49-.13a10.63,10.63,0,0,0,3.28-1.85A16,16,0,0,0,14.54,18a18.08,18.08,0,0,0,1.88-3.72Z"/><path class="cls-1" d="M79.6,15.75,71,0h-10V16.12a24.67,24.67,0,0,0,1.53-3.92l.11-.32h5l-.17.64a26.67,26.67,0,0,1-3.54,8.42,23.83,23.83,0,0,1-2.89,3.5V36H71.69V20.21L80.46,36h6.45V0H79.6Z"/></g></g></g></svg>