<svg width="138" height="138" viewBox="0 0 138 138" fill="none" xmlns="http://www.w3.org/2000/svg">
<path d="M124.48 114.281C116.27 100.088 103.618 89.9102 88.8536 85.0856C96.157 80.7379 101.831 74.1129 105.005 66.2281C108.179 58.3433 108.677 49.6347 106.422 41.4397C104.167 33.2446 99.2849 26.0162 92.5245 20.8646C85.764 15.7129 77.4995 12.9229 68.9999 12.9229C60.5003 12.9229 52.2358 15.7129 45.4754 20.8646C38.7149 26.0162 33.8325 33.2446 31.5779 41.4397C29.3232 49.6347 29.821 58.3433 32.9948 66.2281C36.1686 74.1129 41.8428 80.7379 49.1462 85.0856C34.3813 89.9049 21.7295 100.082 13.5196 114.281C13.2185 114.772 13.0188 115.318 12.9323 115.888C12.8457 116.457 12.8741 117.038 13.0157 117.596C13.1573 118.154 13.4093 118.679 13.7567 119.138C14.1042 119.597 14.5401 119.982 15.0388 120.27C15.5375 120.558 16.0888 120.743 16.6602 120.815C17.2316 120.886 17.8116 120.843 18.3659 120.687C18.9202 120.53 19.4375 120.265 19.8875 119.905C20.3374 119.546 20.7108 119.1 20.9856 118.594C31.1415 101.042 49.0923 90.5625 68.9999 90.5625C88.9075 90.5625 106.858 101.042 117.014 118.594C117.289 119.1 117.662 119.546 118.112 119.905C118.562 120.265 119.08 120.53 119.634 120.687C120.188 120.843 120.768 120.886 121.34 120.815C121.911 120.743 122.462 120.558 122.961 120.27C123.46 119.982 123.896 119.597 124.243 119.138C124.591 118.679 124.842 118.154 124.984 117.596C125.126 117.038 125.154 116.457 125.068 115.888C124.981 115.318 124.781 114.772 124.48 114.281ZM38.8124 51.75C38.8124 45.7795 40.5829 39.9431 43.8999 34.9787C47.217 30.0144 51.9316 26.1452 57.4476 23.8604C62.9637 21.5756 69.0334 20.9778 74.8892 22.1426C80.745 23.3074 86.1239 26.1824 90.3457 30.4042C94.5675 34.626 97.4426 40.0049 98.6074 45.8607C99.7721 51.7165 99.1743 57.7862 96.8895 63.3023C94.6047 68.8183 90.7355 73.533 85.7712 76.85C80.8069 80.1671 74.9704 81.9375 68.9999 81.9375C60.9963 81.929 53.323 78.7458 47.6636 73.0863C42.0042 67.427 38.821 59.7536 38.8124 51.75Z" fill="#FAFAFA"/>
</svg>
