<svg xmlns="http://www.w3.org/2000/svg" viewBox="0 0 18 11.1"><defs><style>.cls-1{fill:#d3231a;}</style></defs><g id="Layer_2" data-name="Layer 2"><g id="管理画面_ユーザー一覧"><path class="cls-1" d="M5.19,7.81s0-.06,0-.08V7.49a1,1,0,0,1,.05-.34,6.31,6.31,0,0,0,.88-1.74,5.49,5.49,0,0,1-.59-2.27,4.91,4.91,0,0,1,0-.55A2.14,2.14,0,0,0,4,1.93,2.35,2.35,0,0,0,1.75,4.52a5.33,5.33,0,0,0,1,2.63,1.27,1.27,0,0,1,.05.34v.24a.74.74,0,0,1-.45.69L.75,9.09A1.25,1.25,0,0,0,0,10l0,.36a.68.68,0,0,0,.18.51.65.65,0,0,0,.49.21H3.34l.11-1.4v0A2.29,2.29,0,0,1,4.75,8Z"/><path class="cls-1" d="M18,10a1.25,1.25,0,0,0-.72-.93l-1.64-.67a.75.75,0,0,1-.44-.69V7.49a1.27,1.27,0,0,1,.05-.34,5.33,5.33,0,0,0,1-2.63A2.35,2.35,0,0,0,14,1.93a2.14,2.14,0,0,0-1.56.66,4.91,4.91,0,0,1,0,.55,5.49,5.49,0,0,1-.59,2.27,6.31,6.31,0,0,0,.88,1.74,1.27,1.27,0,0,1,.05.34v.24s0,0,0,.08l.41.16a2.35,2.35,0,0,1,1.33,1.69v0l.11,1.4h2.67a.65.65,0,0,0,.49-.21.68.68,0,0,0,.18-.51Z"/><path class="cls-1" d="M12.93,8.67l-2-.81A.92.92,0,0,1,10.42,7V6.73a1.14,1.14,0,0,1,.07-.41,6.43,6.43,0,0,0,1.24-3.18A2.85,2.85,0,0,0,9,0,2.85,2.85,0,0,0,6.27,3.14,6.43,6.43,0,0,0,7.51,6.32a1.14,1.14,0,0,1,.07.41V7A.92.92,0,0,1,7,7.86l-2,.81A1.54,1.54,0,0,0,4.19,9.8l-.1,1.3h9.82l-.1-1.3A1.54,1.54,0,0,0,12.93,8.67Z"/></g></g></svg>